<?xml version="1.0" standalone="no"?><!DOCTYPE svg PUBLIC "-//W3C//DTD SVG 1.1//EN" "http://www.w3.org/Graphics/SVG/1.1/DTD/svg11.dtd"><svg t="1490863029653" class="icon" style="" viewBox="0 0 1024 1024" version="1.1" xmlns="http://www.w3.org/2000/svg" p-id="5972" xmlns:xlink="http://www.w3.org/1999/xlink" width="200" height="200"><defs><style type="text/css"></style></defs><path d="M972.203822 471.336882H159.535995l370.933147-323.459927c17.419741-15.192004 17.419741-39.825031 0-55.017034-17.421788-15.192004-45.666062-15.192004-63.086827 0L20.29165 482.730373c-0.030699 0.025583-0.054235 0.054235-0.084934 0.080841a41.938158 41.938158 0 0 0-2.868327 2.768043c-0.430812 0.457418-0.806365 0.938372-1.209548 1.409093-0.468674 0.545422-0.953721 1.079588-1.38965 1.647523-0.426719 0.557702-0.799202 1.137916-1.190105 1.708921-0.354064 0.518816-0.726547 1.02433-1.052982 1.555426-0.357134 0.581238-0.660032 1.179872-0.980328 1.772366-0.301875 0.558725-0.620124 1.107217-0.893346 1.679245-0.272199 0.576121-0.493234 1.164522-0.733711 1.747807-0.252757 0.61296-0.521886 1.218758-0.73985 1.845022-0.200568 0.583285-0.348947 1.175779-0.519839 1.764179-0.186242 0.642636-0.391926 1.277086-0.540306 1.929956-0.154519 0.679475-0.245593 1.362021-0.358157 2.046612-0.095167 0.572028-0.218988 1.13587-0.284479 1.716085a34.145681 34.145681 0 0 0 0 7.676843c0.065492 0.579191 0.189312 1.144056 0.284479 1.715061 0.112564 0.683569 0.203638 1.367137 0.358157 2.045589 0.148379 0.653893 0.354064 1.287319 0.540306 1.929956 0.170892 0.589424 0.319272 1.181919 0.519839 1.765203 0.217964 0.62524 0.487094 1.231037 0.73985 1.845021 0.240477 0.583285 0.462534 1.172709 0.733711 1.747807 0.273223 0.571005 0.591471 1.12052 0.893346 1.679245 0.320295 0.592494 0.623193 1.191128 0.980328 1.771343 0.326435 0.532119 0.699941 1.037632 1.052982 1.555426 0.390903 0.573051 0.763386 1.151219 1.190105 1.710968 0.435928 0.567935 0.920976 1.101077 1.38965 1.646499 0.403183 0.469698 0.777713 0.951675 1.209548 1.409093 0.905626 0.960885 1.862417 1.885953 2.868327 2.768043 0.030699 0.025583 0.054235 0.054235 0.084934 0.080842l447.090665 389.870451c8.713452 7.597025 20.12741 11.392468 31.544437 11.392468 11.413957 0 22.833031-3.797489 31.543413-11.392468 17.421788-15.192004 17.421788-39.822984 0-55.017034L159.535995 549.139875h812.667827c24.638143 0 44.611034-17.416671 44.611034-38.902008 0-21.484314-19.971867-38.900985-44.611034-38.900985z" p-id="5973" fill="#515151" class=""></path></svg>